<svg xmlns="http://www.w3.org/2000/svg" viewBox="0 0 500 500">
  <style>
    .st0{fill:#FFFFFF;}
    .st1{fill:#00B760;}
    .st2{fill:#9BE15D;}
    .st3{opacity:0.2;fill:#333333;}
  </style>
  <g>
    <circle class="st0" cx="250" cy="250" r="200"/>
    <path class="st1" d="M320,150c-27.6,0-50,22.4-50,50c0,22.1,14.3,40.8,34.1,47.4c3.3,1.1,5.9,3.7,7,7l15.9,47.6l15.9-47.6c1.1-3.3,3.7-5.9,7-7
      c19.8-6.6,34.1-25.3,34.1-47.4C384,172.4,347.6,150,320,150z"/>
    <path class="st2" d="M180,150c-27.6,0-50,22.4-50,50c0,22.1,14.3,40.8,34.1,47.4c3.3,1.1,5.9,3.7,7,7l15.9,47.6l15.9-47.6c1.1-3.3,3.7-5.9,7-7
      c19.8-6.6,34.1-25.3,34.1-47.4C244,172.4,207.6,150,180,150z"/>
    <circle class="st3" cx="250" cy="330" r="70"/>
    <path class="st0" d="M305,330c0,30.4-24.6,55-55,55s-55-24.6-55-55s24.6-55,55-55S305,299.6,305,330z"/>
    <g>
      <rect x="245" y="290" class="st1" width="10" height="80"/>
      <rect x="220" y="315" class="st1" width="60" height="10"/>
    </g>
  </g>
</svg>